HIERARCHY
ROOT Hips
{
	OFFSET 0.000000 83.214638 0.000000
	CHANNELS 6 Xposition Yposition Zposition Xrotation Yrotation Zrotation
	JOINT Pelvis
	{
		OFFSET 0.000000 0.000000 0.000000
		CHANNELS 3 Xrotation Yrotation Zrotation
		JOINT LeftUpLeg
		{
			OFFSET 8.479700 -4.795502 -0.379100
			CHANNELS 3 Xrotation Yrotation Zrotation
			JOINT LeftLeg
			{
				OFFSET 0.024144 -32.555107 0.112900
				CHANNELS 3 Xrotation Yrotation Zrotation
				JOINT LeftFoot
				{
					OFFSET -0.024144 -32.638630 -3.012600
					CHANNELS 3 Xrotation Yrotation Zrotation
					JOINT LeftToeBase
					{
						OFFSET 0.970200 -13.225400 11.864200
						CHANNELS 3 Xrotation Yrotation Zrotation
						End Site
						{
							OFFSET 0.000000 12.319262 0.000000
						}
					}
					JOINT LFootTongue
					{
						OFFSET 1.142400 -1.059800 6.665200
						CHANNELS 3 Xrotation Yrotation Zrotation
						End Site
						{
							OFFSET 0.000000 12.319262 0.000000
						}
					}
				}
				JOINT LeftPantLeg
				{
					OFFSET 0.918482 -16.533964 -2.284700
					CHANNELS 3 Xrotation Yrotation Zrotation
					End Site
					{
						OFFSET 0.350399 24.744368 0.000000
					}
				}
			}
		}
		JOINT RightUpLeg
		{
			OFFSET -8.479700 -4.795502 -0.379100
			CHANNELS 3 Xrotation Yrotation Zrotation
			JOINT RightLeg
			{
				OFFSET -0.023144 -32.555092 0.112900
				CHANNELS 3 Xrotation Yrotation Zrotation
				JOINT RightFoot
				{
					OFFSET 0.023144 -32.638641 -3.012700
					CHANNELS 3 Xrotation Yrotation Zrotation
					JOINT RightToeBase
					{
						OFFSET -0.970200 -13.225400 11.864200
						CHANNELS 3 Xrotation Yrotation Zrotation
						End Site
						{
							OFFSET 0.000000 12.319244 0.000000
						}
					}
					JOINT RFootTongue
					{
						OFFSET -1.142200 -1.059800 6.665200
						CHANNELS 3 Xrotation Yrotation Zrotation
						End Site
						{
							OFFSET 0.000000 12.319243 0.000000
						}
					}
				}
				JOINT RightPantLeg
				{
					OFFSET -0.919482 -16.533978 -2.284800
					CHANNELS 3 Xrotation Yrotation Zrotation
					End Site
					{
						OFFSET -0.350400 24.744419 0.000000
					}
				}
			}
		}
	}
	JOINT Spine
	{
		OFFSET 0.000000 7.722000 1.166200
		CHANNELS 3 Xrotation Yrotation Zrotation
		JOINT Spine1
		{
			OFFSET 0.000000 12.024101 0.248800
			CHANNELS 3 Xrotation Yrotation Zrotation
			JOINT Spine2
			{
				OFFSET 0.000000 11.502998 -0.491200
				CHANNELS 3 Xrotation Yrotation Zrotation
				JOINT Neck
				{
					OFFSET 0.000000 18.430702 -3.123100
					CHANNELS 3 Xrotation Yrotation Zrotation
					JOINT Head
					{
						OFFSET 0.000000 9.051102 1.034000
						CHANNELS 3 Xrotation Yrotation Zrotation
						JOINT HairB
						{
							OFFSET 0.208400 24.786102 24.822300
							CHANNELS 3 Xrotation Yrotation Zrotation
							End Site
							{
								OFFSET 0.000000 32.263779 0.000000
							}
						}
						JOINT HairA
						{
							OFFSET -7.081100 24.428299 23.196600
							CHANNELS 3 Xrotation Yrotation Zrotation
							End Site
							{
								OFFSET 0.000000 32.263779 0.000000
							}
						}
						JOINT Hat
						{
							OFFSET 16.728800 15.048294 -15.439601
							CHANNELS 3 Xrotation Yrotation Zrotation
							End Site
							{
								OFFSET 0.000000 32.263779 0.000000
							}
						}
					}
				}
				JOINT LeftShoulder
				{
					OFFSET 6.197800 13.665199 -4.064700
					CHANNELS 3 Xrotation Yrotation Zrotation
					JOINT LeftArm
					{
						OFFSET 7.778100 -0.187103 -1.709300
						CHANNELS 3 Xrotation Yrotation Zrotation
						JOINT LeftForeArm
						{
							OFFSET 22.049376 0.000000 0.000000
							CHANNELS 3 Xrotation Yrotation Zrotation
							JOINT LeftHand
							{
								OFFSET 23.009392 0.000000 0.000000
								CHANNELS 3 Xrotation Yrotation Zrotation
								JOINT LeftHandThumb1
								{
									OFFSET 3.507191 -2.063065 3.133727
									CHANNELS 3 Xrotation Yrotation Zrotation
									JOINT LeftHandThumb2
									{
										OFFSET 3.101337 -1.790558 1.790558
										CHANNELS 3 Xrotation Yrotation Zrotation
										JOINT LeftHandThumb3
										{
											OFFSET 3.058640 -1.765907 1.765906
											CHANNELS 3 Xrotation Yrotation Zrotation
											End Site
											{
												OFFSET -0.415260 3.926476 -0.049563
											}
										}
									}
								}
								JOINT LeftHandIndex1
								{
									OFFSET 11.334419 -0.901459 3.706815
									CHANNELS 3 Xrotation Yrotation Zrotation
									JOINT LeftHandIndex2
									{
										OFFSET 3.283112 0.000000 0.000000
										CHANNELS 3 Xrotation Yrotation Zrotation
										JOINT LeftHandIndex3
										{
											OFFSET 3.323853 0.000000 0.000000
											CHANNELS 3 Xrotation Yrotation Zrotation
											End Site
											{
												OFFSET -1.135597 3.097809 0.402452
											}
										}
									}
								}
								JOINT LeftHandMiddle1
								{
									OFFSET 11.335861 0.000000 0.000000
									CHANNELS 3 Xrotation Yrotation Zrotation
									JOINT LeftHandMiddle2
									{
										OFFSET 3.410492 0.000000 0.000000
										CHANNELS 3 Xrotation Yrotation Zrotation
										JOINT LeftHandMiddle3
										{
											OFFSET 3.312172 0.000000 0.000000
											CHANNELS 3 Xrotation Yrotation Zrotation
											End Site
											{
												OFFSET -1.150200 3.080154 0.400270
											}
										}
									}
								}
								JOINT LeftHandRing1
								{
									OFFSET 11.514786 -0.013176 -3.003090
									CHANNELS 3 Xrotation Yrotation Zrotation
									JOINT LeftHandRing2
									{
										OFFSET 3.053307 0.000000 0.000000
										CHANNELS 3 Xrotation Yrotation Zrotation
										JOINT LeftHandRing3
										{
											OFFSET 3.295807 0.000000 0.000000
											CHANNELS 3 Xrotation Yrotation Zrotation
											End Site
											{
												OFFSET -1.281006 3.013344 0.375733
											}
										}
									}
								}
								JOINT LeftHandPinky1
								{
									OFFSET 10.518692 -0.960396 -5.730441
									CHANNELS 3 Xrotation Yrotation Zrotation
									JOINT LeftHandPinky2
									{
										OFFSET 2.861649 0.000000 0.000000
										CHANNELS 3 Xrotation Yrotation Zrotation
										JOINT LeftHandPinky3
										{
											OFFSET 2.863380 0.000000 0.000000
											CHANNELS 3 Xrotation Yrotation Zrotation
											End Site
											{
												OFFSET -0.843597 2.711159 0.369971
											}
										}
									}
								}
							}
							JOINT LSleeve
							{
								OFFSET 6.676277 -0.344902 -1.011730
								CHANNELS 3 Xrotation Yrotation Zrotation
								End Site
								{
									OFFSET 0.000000 14.885353 0.000000
								}
							}
						}
					}
				}
				JOINT RightShoulder
				{
					OFFSET -6.197800 13.665199 -4.064700
					CHANNELS 3 Xrotation Yrotation Zrotation
					JOINT RightArm
					{
						OFFSET -7.778100 -0.187103 -1.709300
						CHANNELS 3 Xrotation Yrotation Zrotation
						JOINT RightForeArm
						{
							OFFSET -22.049376 0.000000 0.000000
							CHANNELS 3 Xrotation Yrotation Zrotation
							JOINT RightHand
							{
								OFFSET -23.009392 0.000000 0.000000
								CHANNELS 3 Xrotation Yrotation Zrotation
								JOINT RightHandThumb1
								{
									OFFSET -3.507191 -2.063065 3.133727
									CHANNELS 3 Xrotation Yrotation Zrotation
									JOINT RightHandThumb2
									{
										OFFSET -3.101337 -1.790558 1.790558
										CHANNELS 3 Xrotation Yrotation Zrotation
										JOINT RightHandThumb3
										{
											OFFSET -3.058640 -1.765907 1.765906
											CHANNELS 3 Xrotation Yrotation Zrotation
											End Site
											{
												OFFSET 0.415260 3.926476 -0.049563
											}
										}
									}
								}
								JOINT RightHandIndex1
								{
									OFFSET -11.334419 -0.901459 3.706815
									CHANNELS 3 Xrotation Yrotation Zrotation
									JOINT RightHandIndex2
									{
										OFFSET -3.283112 0.000000 0.000000
										CHANNELS 3 Xrotation Yrotation Zrotation
										JOINT RightHandIndex3
										{
											OFFSET -3.323853 0.000000 0.000000
											CHANNELS 3 Xrotation Yrotation Zrotation
											End Site
											{
												OFFSET 1.135597 3.097809 0.402452
											}
										}
									}
								}
								JOINT RightHandMiddle1
								{
									OFFSET -11.335861 0.000000 0.000000
									CHANNELS 3 Xrotation Yrotation Zrotation
									JOINT RightHandMiddle2
									{
										OFFSET -3.410492 0.000000 0.000000
										CHANNELS 3 Xrotation Yrotation Zrotation
										JOINT RightHandMiddle3
										{
											OFFSET -3.312172 0.000000 0.000000
											CHANNELS 3 Xrotation Yrotation Zrotation
											End Site
											{
												OFFSET 1.150200 3.080154 0.400270
											}
										}
									}
								}
								JOINT RightHandRing1
								{
									OFFSET -11.514786 -0.013176 -3.003090
									CHANNELS 3 Xrotation Yrotation Zrotation
									JOINT RightHandRing2
									{
										OFFSET -3.053307 0.000000 0.000000
										CHANNELS 3 Xrotation Yrotation Zrotation
										JOINT RightHandRing3
										{
											OFFSET -3.295807 0.000000 0.000000
											CHANNELS 3 Xrotation Yrotation Zrotation
											End Site
											{
												OFFSET 1.281006 3.013344 0.375733
											}
										}
									}
								}
								JOINT RightHandPinky1
								{
									OFFSET -10.518692 -0.960396 -5.730441
									CHANNELS 3 Xrotation Yrotation Zrotation
									JOINT RightHandPinky2
									{
										OFFSET -2.861649 0.000000 0.000000
										CHANNELS 3 Xrotation Yrotation Zrotation
										JOINT RightHandPinky3
										{
											OFFSET -2.863380 0.000000 0.000000
											CHANNELS 3 Xrotation Yrotation Zrotation
											End Site
											{
												OFFSET 0.843597 2.711159 0.369971
											}
										}
									}
								}
							}
							JOINT RSleeve
							{
								OFFSET -6.676277 -0.344902 -1.011730
								CHANNELS 3 Xrotation Yrotation Zrotation
								End Site
								{
									OFFSET 0.000000 14.885353 0.000000
								}
							}
						}
					}
				}
				JOINT Backpack
				{
					OFFSET 0.000000 -2.471497 36.677502
					CHANNELS 3 Xrotation Yrotation Zrotation
					End Site
					{
						OFFSET 0.000000 20.427315 0.000000
					}
				}
				JOINT Hood
				{
					OFFSET 0.000000 18.754097 -10.431000
					CHANNELS 3 Xrotation Yrotation Zrotation
					JOINT Hood1
					{
						OFFSET 0.000000 -5.011002 -7.685901
						CHANNELS 3 Xrotation Yrotation Zrotation
						End Site
						{
							OFFSET 0.000000 9.175140 0.000000
						}
					}
				}
				JOINT LHoodieString
				{
					OFFSET 5.250500 16.397697 3.089900
					CHANNELS 3 Xrotation Yrotation Zrotation
					JOINT LHoodieString1
					{
						OFFSET 0.257700 -6.364304 3.694600
						CHANNELS 3 Xrotation Yrotation Zrotation
						JOINT LHoodieString2
						{
							OFFSET 0.000000 -9.643799 2.679100
							CHANNELS 3 Xrotation Yrotation Zrotation
							End Site
							{
								OFFSET 0.000000 10.009018 0.000000
							}
						}
					}
				}
				JOINT RHoodieString
				{
					OFFSET -5.250500 16.397697 3.089900
					CHANNELS 3 Xrotation Yrotation Zrotation
					JOINT RHoodieString1
					{
						OFFSET -0.257700 -6.364304 3.694600
						CHANNELS 3 Xrotation Yrotation Zrotation
						JOINT RHoodieString2
						{
							OFFSET 0.000000 -9.643799 2.679100
							CHANNELS 3 Xrotation Yrotation Zrotation
							End Site
							{
								OFFSET 0.000000 10.009018 0.000000
							}
						}
					}
				}
			}
			JOINT LBackpack_Strap
			{
				OFFSET 15.223200 -7.719803 -6.610900
				CHANNELS 3 Xrotation Yrotation Zrotation
				End Site
				{
					OFFSET 0.000000 16.040596 0.000000
				}
			}
			JOINT RBackpack_Strap
			{
				OFFSET -15.223000 -7.719803 -6.610900
				CHANNELS 3 Xrotation Yrotation Zrotation
				End Site
				{
					OFFSET 0.000000 16.040596 0.000000
				}
			}
		}
	}
	JOINT BoyFacialAnim_Joint
	{
		OFFSET 1.000000 -82.208099 -1.550900
		CHANNELS 3 Xrotation Yrotation Zrotation
		End Site
		{
			OFFSET 0.000000 30.012791 0.000000
		}
	}
}
MOTION
Frames: 4
Frame Time: 0.033333
-7.889617 77.574821 9.290181 -17.397477 71.985618 16.891766 -0.000000 -0.000002 -0.000000 -43.715229 -8.028534 7.900960 49.866535 -0.427741 -1.813077 33.114260 6.194713 5.954024 -0.000000 0.000000 0.000000 -0.000000 0.000000 -0.000000 0.000000 -0.000002 0.000000 -23.520912 -20.372936 -8.814078 42.693491 -0.308035 1.437543 -14.922785 16.824626 -3.538064 -0.000000 -0.000000 0.000000 -0.000000 -0.000000 0.000000 -0.000000 0.000002 -0.000001 -0.012119 2.146414 0.424754 0.073578 3.839293 -1.292154 0.073576 3.839333 -1.292151 4.405465 1.344911 3.102245 3.136349 4.009335 -5.247063 -0.000000 0.000000 0.000000 -0.000000 0.000000 0.000000 -0.000000 0.000000 0.000000 1.138609 4.100204 -9.793690 5.859298 -13.028776 -53.607091 -0.331522 -91.772068 -0.286012 -60.877353 -6.054576 -8.968033 -32.674945 -12.269035 3.852663 9.125144 23.538196 -4.996117 -0.000003 0.000002 -0.000002 -10.117920 2.019179 -36.818633 0.099018 0.460312 -32.487180 -0.000001 0.000001 -0.000002 -1.221210 -0.252934 -31.282748 -1.632511 -3.558088 -46.051461 0.000001 0.000000 -0.000001 -0.501997 0.884362 -31.275942 -1.458866 -3.419682 -49.132440 0.000001 -0.000002 -0.000001 -0.579055 -6.092898 -32.873284 -1.366048 -3.485632 -40.617264 0.000000 -0.000004 0.000001 -0.000003 -0.000000 0.000000 0.615424 3.966794 6.992151 1.639661 -4.477628 65.993418 -0.152641 91.072322 0.113682 -54.569926 24.510690 5.714998 -17.374019 -12.769137 20.298105 3.251882 -12.188612 4.479989 -0.000002 -0.000001 -0.000001 2.538479 -8.158785 52.308587 0.369450 -1.184809 31.655888 -0.000001 0.000002 -0.000003 4.117942 -8.486049 49.416046 -0.582998 1.930882 32.994803 0.000002 -0.000001 -0.000000 6.579324 -7.775016 51.441703 -0.927367 2.574593 27.871591 0.000003 -0.000002 0.000007 7.125588 -2.697802 39.745042 -2.078290 5.275586 38.184794 -0.000001 0.000000 0.000000 0.000001 0.000000 0.000001 0.000000 -0.000001 -0.000000 0.000000 -0.000001 -0.000000 0.000000 -0.000001 -0.000000 0.000000 -0.000001 -0.000000 0.000000 -0.000001 -0.000000 0.000001 0.000000 -0.000000 0.000000 -0.000001 -0.000000 0.000000 -0.000001 -0.000000 0.000001 0.000000 -0.000000 -0.000000 -0.000000 -0.000000 -0.000000 -0.000000 -0.000000 -0.000000 -0.000002 -0.000000 
-7.885402 77.633644 9.005138 -17.092721 73.694586 16.898732 0.000000 0.000000 -0.000000 -43.384474 -6.691876 7.928194 49.270174 -0.413258 -1.794171 33.536270 8.976469 5.962438 -0.000001 0.000000 -0.000001 -0.000001 0.000000 -0.000001 0.000000 -0.000001 0.000001 -24.101282 -19.611259 -9.048891 42.594750 -0.285906 1.434977 -14.976819 14.605571 -3.091375 0.000000 0.000000 0.000000 0.000000 0.000000 0.000000 0.000001 -0.000002 0.000001 -0.078421 2.161512 0.453371 -0.057473 3.867361 -1.269460 -0.057475 3.867380 -1.269458 4.082931 1.126221 2.936273 3.080236 3.608494 -5.017162 -0.000000 0.000000 0.000000 -0.000000 0.000000 0.000000 -0.000000 0.000000 0.000000 1.157863 4.165747 -10.118072 6.063727 -12.890916 -53.342568 -0.260209 -91.925549 -0.215062 -60.897079 -6.013890 -8.500736 -32.602183 -12.345179 3.789794 9.152360 23.516153 -5.019467 -0.000002 -0.000004 0.000002 -10.126567 2.022314 -36.890798 0.098606 0.459700 -32.432457 -0.000003 0.000001 -0.000001 -1.229282 -0.266012 -31.288338 -1.627194 -3.553219 -45.967784 -0.000000 -0.000004 -0.000000 -0.515497 0.859708 -31.248563 -1.459265 -3.420091 -49.139557 -0.000002 0.000001 -0.000002 -0.563045 -6.061453 -32.889482 -1.359270 -3.463159 -40.593447 0.000001 -0.000005 0.000001 -0.000001 0.000000 -0.000000 0.633135 3.818872 6.665534 1.430097 -4.182989 66.455883 -0.230010 90.467522 0.191435 -54.517422 24.454476 5.830896 -16.758165 -11.952795 20.367752 3.350369 -12.056821 4.572071 -0.000001 0.000001 0.000002 2.541571 -8.155669 52.339316 0.370185 -1.185946 31.690811 -0.000002 0.000000 0.000002 4.120015 -8.484518 49.431681 -0.582938 1.930778 32.993157 -0.000000 -0.000001 0.000001 6.565591 -7.782689 51.366328 -0.927353 2.574608 27.871722 -0.000002 -0.000002 0.000002 7.111953 -2.687199 39.679069 -2.077926 5.255595 38.187116 0.000000 -0.000000 -0.000002 0.000001 0.000001 -0.000000 -0.000000 -0.000000 -0.000000 -0.000000 -0.000000 -0.000000 -0.000000 -0.000000 -0.000000 -0.000000 -0.000000 -0.000000 -0.000000 -0.000000 -0.000000 0.000000 -0.000000 -0.000000 -0.000000 -0.000000 -0.000000 -0.000000 -0.000000 -0.000000 0.000000 -0.000000 -0.000000 -0.000001 -0.000000 -0.000000 -0.000001 -0.000000 -0.000000 0.000000 0.000000 -0.000000 
-7.783035 77.721497 8.621424 -16.443793 75.381178 16.651144 -0.000000 -0.000000 -0.000000 -41.360969 -5.290171 8.242852 48.596649 -0.392298 -1.771056 34.119896 7.338851 4.456104 -0.000002 0.000000 -0.000001 -0.000002 0.000000 -0.000001 -0.000000 0.000000 0.000000 -24.663697 -18.543894 -9.376549 42.450408 -0.271174 1.430698 -15.049065 12.208784 -2.493683 0.000000 0.000000 0.000000 0.000000 0.000000 0.000000 0.000000 -0.000001 0.000001 -0.145894 2.139396 0.440745 -0.192947 3.877629 -1.282161 -0.192945 3.877608 -1.282161 3.783397 0.909149 2.764610 3.042831 3.225681 -4.770099 0.000000 -0.000000 -0.000000 0.000000 -0.000000 -0.000000 0.000000 -0.000000 -0.000000 1.159195 4.201814 -10.082824 6.298193 -12.784006 -53.396510 -0.208901 -92.021527 -0.164299 -60.890747 -6.110038 -8.023075 -32.644766 -12.370321 3.731043 9.170320 23.501767 -5.034856 0.000000 -0.000002 0.000001 -10.121939 2.032337 -36.905469 0.099255 0.460285 -32.425845 -0.000001 0.000003 0.000000 -1.223996 -0.259038 -31.263316 -1.626818 -3.552781 -45.983484 -0.000001 0.000001 -0.000001 -0.513362 0.863400 -31.218305 -1.461590 -3.422681 -49.151797 -0.000002 0.000000 -0.000002 -0.566826 -6.075946 -32.841756 -1.355758 -3.451929 -40.589362 0.000002 -0.000002 0.000001 -0.000002 0.000001 0.000001 0.648516 3.653965 6.447420 1.036402 -3.877152 66.873610 0.225106 89.772188 -0.264038 -54.414338 24.140388 5.935092 -16.184362 -11.271453 20.367558 3.430975 -11.949966 4.647698 -0.000001 -0.000001 -0.000001 2.538702 -8.162719 52.287871 0.368839 -1.183916 31.627676 -0.000000 0.000003 0.000004 4.115037 -8.496188 49.357717 -0.582657 1.930338 32.984370 0.000001 -0.000001 0.000001 6.556187 -7.789361 51.309348 -0.926303 2.575701 27.858719 -0.000000 -0.000002 0.000004 7.102161 -2.676627 39.649723 -2.077636 5.244621 38.186860 -0.000000 -0.000002 0.000002 -0.000002 -0.000000 0.000000 -0.000000 -0.000000 -0.000000 -0.000000 -0.000000 -0.000000 -0.000000 -0.000000 -0.000000 -0.000000 -0.000000 -0.000000 -0.000000 -0.000000 0.000000 0.000000 0.000000 0.000000 -0.000000 -0.000000 -0.000000 -0.000000 -0.000000 0.000000 0.000000 0.000000 0.000000 0.000000 -0.000000 0.000000 0.000000 -0.000000 0.000000 -0.000000 -0.000000 -0.000000 
-7.559627 77.796822 8.147393 -15.701104 77.058044 16.292407 0.000000 -0.000000 -0.000000 -39.270220 -5.720964 9.342235 50.427956 1.014496 -1.660497 32.181468 4.819733 -3.253150 0.000004 -0.000000 -0.000001 0.000004 -0.000000 -0.000000 0.000001 0.000000 0.000001 -25.136688 -17.463172 -9.831493 42.372267 -0.242894 1.429037 -15.226090 9.858581 -1.773517 0.000000 -0.000002 -0.000000 0.000000 -0.000002 -0.000000 -0.000000 0.000004 -0.000001 -0.208828 2.096910 0.445118 -0.317903 3.861403 -1.314524 -0.317903 3.861358 -1.314526 3.521369 0.692817 2.582760 3.029109 2.859651 -4.503538 0.000000 0.000000 0.000000 0.000000 0.000000 0.000000 0.000000 0.000000 0.000000 1.154137 4.144402 -10.071090 6.564786 -12.533057 -53.438697 -0.137383 -92.250352 -0.093245 -60.836536 -6.107825 -7.419837 -32.767611 -12.387386 3.637094 9.171991 23.500842 -5.036302 -0.000001 -0.000002 0.000000 -10.103393 2.037462 -36.804259 0.101504 0.462564 -32.458285 -0.000000 0.000002 -0.000003 -1.218421 -0.250571 -31.252555 -1.628788 -3.554288 -46.075602 -0.000000 -0.000000 0.000002 -0.525082 0.841781 -31.176439 -1.466664 -3.428715 -49.161448 0.000001 -0.000002 -0.000004 -0.566254 -6.079189 -32.815644 -1.357877 -3.460386 -40.606516 0.000002 0.000001 -0.000000 0.000001 0.000000 0.000000 0.652547 3.589873 6.424630 0.594685 -3.660083 67.064603 -0.043832 89.146748 0.007142 -54.323278 23.609879 5.848767 -15.621694 -10.569479 20.379140 3.491685 -11.871929 4.705366 -0.000003 0.000002 0.000001 2.537539 -8.166307 52.263323 0.368625 -1.183600 31.617707 -0.000003 -0.000001 0.000005 4.116751 -8.494489 49.372682 -0.582666 1.930347 32.984626 -0.000001 0.000001 0.000002 6.553395 -7.787641 51.306055 -0.925030 2.582680 27.862770 -0.000002 0.000001 -0.000001 7.098533 -2.672192 39.641991 -2.077464 5.250219 38.179999 -0.000003 0.000001 -0.000001 0.000001 -0.000000 0.000000 0.000000 0.000000 0.000000 0.000000 0.000000 0.000000 0.000000 0.000000 0.000000 0.000000 0.000000 0.000000 0.000000 0.000000 0.000000 0.000000 -0.000000 0.000000 0.000000 0.000000 0.000000 0.000000 0.000000 0.000000 0.000000 -0.000000 0.000000 -0.000000 -0.000001 -0.000000 -0.000000 -0.000001 -0.000000 0.000000 -0.000000 -0.000000 
